<svg width="50" height="50" viewBox="0 0 50 50" fill="none" xmlns="http://www.w3.org/2000/svg">
<path d="M25.0899 0.108887C15.195 0.107445 6.25232 6.00549 2.35776 15.1016L2.04953 15.2038L2.16903 15.5623C-2.95876 28.2093 3.13667 42.6186 15.7837 47.7464C18.7375 48.9441 21.8951 49.5589 25.0825 49.5572C38.7373 49.5592 49.8083 38.4915 49.8104 24.8367C49.8124 11.182 38.7447 0.110844 25.0899 0.108887ZM44.4832 37.2985L43.2136 36.0298V33.0744C43.215 32.9469 43.1868 32.8208 43.1312 32.706L39.917 26.2868V23.1848C39.917 22.9093 39.7795 22.6519 39.5503 22.4991L37.0779 20.8508C36.8841 20.7214 36.6446 20.6801 36.4186 20.7371L33.3907 21.4936L28.3049 19.3113L27.6052 14.4093L29.5444 12.471H33.7071L35.1082 14.5766C35.2347 14.766 35.434 14.8946 35.6587 14.9318L40.6035 15.756C40.736 15.7782 40.8718 15.7674 40.9991 15.7247L45.5533 14.2066C49.3731 21.5368 48.9645 30.3531 44.4832 37.2985ZM41.084 8.22994L39.7439 9.12331L36.0081 8.37582L33.5843 7.56898C33.436 7.51861 33.2763 7.51222 33.1245 7.55085L30.0603 8.31648L28.717 7.86897L29.7125 5.87785H32.4998C32.6276 5.87796 32.7537 5.84839 32.8682 5.79132L35.7197 4.36556C37.6834 5.39058 39.4899 6.6919 41.084 8.22994ZM16.0558 3.59746L18.0337 4.91608C18.1309 4.98078 18.2408 5.02405 18.3559 5.043L22.3497 5.7089L21.9599 6.87506L19.8789 7.56981C19.6926 7.63182 19.5344 7.75833 19.4331 7.92666L17.0661 11.871L13.2644 14.1522L7.66026 14.9524C7.25406 15.0098 6.95202 15.3573 6.9515 15.7675V18.2399C6.9515 18.4585 7.03845 18.6681 7.19297 18.8226L8.59978 20.2294V21.6453L5.17136 19.3591L3.92774 15.6282C6.29384 10.2219 10.6306 5.91988 16.0558 3.59746ZM13.7094 30.6185L9.98433 29.8726L8.59978 27.1109V25.1742L11.6705 22.1035L12.807 24.3773C12.9466 24.6567 13.2323 24.8331 13.5446 24.833H18.8471L21.0797 28.554C21.2287 28.802 21.4967 28.9536 21.786 28.9537H24.0771L23.5002 31.844L20.38 34.9642C20.2252 35.1186 20.138 35.3281 20.1377 35.5468V37.6072L17.1708 39.8323C16.9633 39.988 16.8412 40.2323 16.8412 40.4916V43.4684L15.8159 43.1289L14.3687 39.5093V31.4261C14.3688 31.0345 14.0932 30.6968 13.7094 30.6185ZM11.2321 43.2876C3.46159 37.458 0.17544 27.3854 3.01295 18.0949L3.69781 20.1486C3.75549 20.3224 3.86943 20.4721 4.02169 20.5739L8.13002 23.3125L7.19297 24.2504C7.03845 24.4049 6.9515 24.6144 6.9515 24.833V27.3054C6.9514 27.4333 6.98097 27.5594 7.03804 27.6738L8.68631 30.9704C8.80046 31.1981 9.01339 31.3602 9.26321 31.4097L12.7246 32.1011V39.6675C12.7245 39.7722 12.7444 39.876 12.7831 39.9733L14.4314 44.094C14.5216 44.3191 14.7064 44.493 14.9366 44.5695L17.409 45.3936C17.4916 45.4216 17.5781 45.4361 17.6653 45.4365C18.1204 45.4365 18.4894 45.0675 18.4894 44.6123V40.9037L21.4563 38.6786C21.6638 38.5229 21.786 38.2786 21.786 38.0192V35.888L24.8411 32.8329C24.9559 32.7179 25.0342 32.5713 25.0661 32.4118L25.8902 28.2911C25.9794 27.8447 25.6899 27.4106 25.2436 27.3214C25.1905 27.3108 25.1366 27.3054 25.0825 27.3054H22.2524L20.0199 23.5845C19.8709 23.3365 19.6028 23.1849 19.3136 23.1848H14.0539L12.6381 20.3439C12.5195 20.1068 12.2941 19.9412 12.0323 19.8989C11.7706 19.8537 11.5035 19.94 11.3178 20.1297L10.2481 21.1953V19.8882C10.2481 19.6696 10.1611 19.4601 10.0066 19.3055L8.59978 17.8987V16.482L13.6616 15.7593C13.7703 15.7435 13.8749 15.7062 13.969 15.6497L18.0897 13.1772C18.2053 13.1078 18.3021 13.011 18.3716 12.8954L20.6874 9.03595L22.8706 8.30741C23.1171 8.22654 23.3105 8.03318 23.3914 7.78656L24.2155 5.31414C24.3583 4.88199 24.1238 4.41583 23.6916 4.27305C23.6517 4.25986 23.6108 4.24977 23.5694 4.24276L18.7993 3.44747L17.9612 2.8887C23.1474 1.20066 28.7645 1.40958 33.811 3.47796L32.3053 4.22958H29.2032C28.8893 4.22783 28.6018 4.4046 28.4615 4.68533L26.8132 7.98188C26.6102 8.38921 26.7757 8.8841 27.1831 9.08715C27.2178 9.10446 27.2536 9.11929 27.2904 9.13155L29.7628 9.95569C29.9112 10.0061 30.0708 10.0125 30.2227 9.97382L33.2868 9.20819L35.5318 9.95569C35.5639 9.96723 35.597 9.97609 35.6307 9.98206L39.7514 10.8062C39.9656 10.8499 40.1886 10.806 40.3703 10.6842L42.246 9.43318C43.1692 10.4614 43.9988 11.5699 44.725 12.7454L40.6703 14.097L36.2801 13.3651L34.8296 11.1894C34.6776 10.9614 34.4221 10.824 34.1481 10.8227H29.2032C28.9846 10.8227 28.7751 10.9096 28.6206 11.0642L26.1481 13.5366C25.9646 13.72 25.8781 13.9793 25.9149 14.2363L26.7391 20.0052C26.7806 20.2905 26.9681 20.5333 27.2335 20.6456L33.0025 23.118C33.1677 23.1896 33.3521 23.2043 33.5267 23.16L36.4697 22.4241L38.2687 23.6257V26.4813C38.2673 26.6088 38.2955 26.7349 38.3512 26.8497L41.5653 33.2689V36.371C41.5653 36.5896 41.6522 36.7991 41.8068 36.9536L43.5309 38.6786C35.8846 48.8704 21.4239 50.934 11.2321 43.2876Z" fill="#F9922B"/>
</svg>
