<svg width="16" height="12" viewBox="0 0 16 12" fill="none" xmlns="http://www.w3.org/2000/svg">
<g clip-path="url(#clip0)">
<path d="M14.5938 0.250244H1.40625C0.631813 0.250244 0 0.845269 0 1.57606V10.4148C0 11.1431 0.629 11.7406 1.40625 11.7406H14.5938C15.3663 11.7406 16 11.1476 16 10.4148V1.57606C16 0.847743 15.371 0.250244 14.5938 0.250244ZM14.3996 1.13412L8.02981 7.13955L1.60497 1.13412H14.3996ZM0.9375 10.2318V1.75486L5.45247 5.97507L0.9375 10.2318ZM1.60041 10.8567L6.11822 6.59735L7.70125 8.07701C7.8845 8.24831 8.18022 8.24775 8.36272 8.07566L9.90625 6.62042L14.3996 10.8567H1.60041ZM15.0625 10.2318L10.5692 5.99543L15.0625 1.75908V10.2318Z" fill="#FF7801"/>
</g>
<defs>
<clipPath id="clip0">
<rect width="16" height="11.9905" fill="white"/>
</clipPath>
</defs>
</svg>
