<svg width="53" height="53" viewBox="0 0 53 53" fill="none" xmlns="http://www.w3.org/2000/svg">
<g clip-path="url(#clip0)">
<path d="M52.409 21.3815L27.4685 3.1205C26.9875 2.76843 26.3342 2.76843 25.8534 3.1205L0.91264 21.3815C0.303451 21.8276 0.171091 22.683 0.617192 23.2922C1.06329 23.9014 1.91881 24.0335 2.5279 23.5876L26.6608 5.91786L50.7938 23.5875C51.0371 23.7658 51.3199 23.8516 51.6003 23.8516C52.0212 23.8516 52.4366 23.6579 52.7044 23.2921C53.1506 22.683 53.0182 21.8276 52.409 21.3815Z" fill="#F9922B"/>
<path d="M45.8003 23.8972C45.0454 23.8972 44.4332 24.5093 44.4332 25.2643V47.0246H33.4968V35.1465C33.4968 31.377 30.4301 28.3106 26.6609 28.3106C22.8917 28.3106 19.825 31.3773 19.825 35.1465V47.0247H8.88845V25.2644C8.88845 24.5094 8.27628 23.8973 7.52137 23.8973C6.76647 23.8973 6.1543 24.5094 6.1543 25.2644V48.3919C6.1543 49.1469 6.76647 49.759 7.52137 49.759H21.1921C21.911 49.759 22.4993 49.2035 22.5538 48.4984C22.5571 48.4664 22.5591 48.4315 22.5591 48.3919V35.1466C22.5591 32.8848 24.3991 31.0448 26.6609 31.0448C28.9226 31.0448 30.7626 32.8849 30.7626 35.1466V48.3919C30.7626 48.4313 30.7647 48.4656 30.768 48.4971C30.8218 49.2028 31.4104 49.759 32.1297 49.759H45.8004C46.5554 49.759 47.1675 49.1469 47.1675 48.3919V25.2644C47.1674 24.5093 46.5553 23.8972 45.8003 23.8972Z" fill="#F9922B"/>
</g>
<defs>
<clipPath id="clip0">
<rect x="0.353027" width="52.6155" height="52.6155" fill="white"/>
</clipPath>
</defs>
</svg>
