<svg width="513" height="277" viewBox="0 0 513 277" fill="none" xmlns="http://www.w3.org/2000/svg">
<path d="M46.3341 169.551L13.7132 136.735L136.994 13.6388L263.253 139.988L238.32 165.12H252.033L277.035 139.988L137.063 0L0 136.804L46.3341 183.259V169.551Z" fill="#F9922B"/>
<path d="M170.446 232.968L140.111 263.292L109.775 232.968H96.1313L140.111 277L184.159 232.968H170.446Z" fill="#F9922B"/>
<path d="M117.463 95.1948H56.0303V223.968H117.463V95.1948Z" fill="#333333"/>
<path d="M189.284 25.27H149.253V223.968H189.284V25.27Z" fill="#333333"/>
<path d="M149.253 145.181H93.4995V223.968H149.253V145.181Z" fill="#F9922B"/>
<path d="M212.763 186.928H203.552V223.968H212.763V186.928Z" fill="#333333"/>
<path d="M212.763 173.428H203.552V182.567H212.763V173.428Z" fill="#333333"/>
<path d="M226.338 188.451H231.463L259.374 213.168L262.214 216.56L261.729 211.852V188.451C261.729 188.451 267.685 188.175 267.685 188.451C267.685 188.728 267.685 224.037 267.685 224.037H263.114L234.787 198.906L232.017 195.236L232.571 199.598V224.037H226.476V188.451H226.338Z" fill="#333333"/>
<path d="M284.446 223.968C284.446 223.968 284.307 188.105 284.446 188.244C284.584 188.382 319.906 188.244 319.906 188.244V193.436H291.233V204.582H307.509V209.775H291.095V223.968C291.164 223.968 284.723 223.968 284.446 223.968Z" fill="#333333"/>
<path d="M366.933 188.313H335.559C332.235 188.313 329.533 191.013 329.533 194.336V217.945C329.533 221.268 332.235 223.968 335.559 223.968H366.933C370.258 223.968 372.959 221.268 372.959 217.945V194.336C372.959 191.013 370.258 188.313 366.933 188.313ZM366.379 218.845H336.321V193.575H366.379V218.845Z" fill="#333333"/>
<path d="M431.552 188.659C431.552 188.659 432.591 174.12 418.323 173.428H380.716V224.037H418.739C418.739 224.037 430.79 224.314 431.552 210.675C431.552 210.675 432.106 201.883 428.227 198.698C428.227 198.698 431.69 195.929 431.552 188.659ZM421.578 209.29C421.578 211.991 419.431 214.137 416.73 214.137H390.689V203.613H416.73C419.431 203.613 421.578 205.76 421.578 208.46V209.29ZM421.578 189.005C421.578 191.705 419.431 193.852 416.73 193.852H390.689V183.328H416.73C419.431 183.328 421.578 185.474 421.578 188.175V189.005Z" fill="#333333"/>
<path d="M446.858 173.428H436.677V224.037H446.858V173.428Z" fill="#333333"/>
<path d="M451.844 223.968V173.428H461.956L482.457 205.137L502.75 173.428H513V223.968H502.957V192.121L482.457 223.968L462.025 192.121V223.968H451.844Z" fill="#333333"/>
</svg>
