<svg width="11" height="19" viewBox="0 0 11 19" fill="none" xmlns="http://www.w3.org/2000/svg">
<g clip-path="url(#clip0)">
<path d="M8.96029 18.6054H2.03975C1.09273 18.6054 0.364258 17.846 0.364258 16.8588V2.1265C0.364258 1.13928 1.09273 0.379883 2.03975 0.379883H8.96029C9.90731 0.379883 10.6358 1.13928 10.6358 2.1265V16.8588C10.6358 17.846 9.90731 18.6054 8.96029 18.6054Z" stroke="#FF7801" stroke-miterlimit="10" stroke-linecap="round" stroke-linejoin="round"/>
<path d="M0.364258 3.49316H10.6358" stroke="#FF7801" stroke-miterlimit="10" stroke-linecap="round" stroke-linejoin="round"/>
<path d="M4.5166 1.89844H6.48349" stroke="#FF7801" stroke-miterlimit="10" stroke-linecap="round" stroke-linejoin="round"/>
<path d="M0.364258 15.5676H10.6358" stroke="#FF7801" stroke-miterlimit="10" stroke-linecap="round" stroke-linejoin="round"/>
<path d="M5.53645 17.5414C5.77785 17.5414 5.97354 17.3376 5.97354 17.0861C5.97354 16.8347 5.77785 16.6309 5.53645 16.6309C5.29506 16.6309 5.09937 16.8347 5.09937 17.0861C5.09937 17.3376 5.29506 17.5414 5.53645 17.5414Z" stroke="#FF7801" stroke-miterlimit="10" stroke-linecap="round" stroke-linejoin="round"/>
</g>
<defs>
<clipPath id="clip0">
<rect width="11" height="18.985" fill="white"/>
</clipPath>
</defs>
</svg>
