<?xml version="1.0" encoding="utf-8"?><svg xmlns="http://www.w3.org/2000/svg" xmlns:xlink="http://www.w3.org/1999/xlink"><symbol viewBox="0 0 51 43" fill="none" id="cloud" xmlns="http://www.w3.org/2000/svg"><path d="M42.895 14.163C42.46 6.744 36.345.814 28.971.814c-4.476 0-8.81 2.195-11.495 5.777-.062-.032-.127-.054-.19-.084a7.678 7.678 0 00-.498-.222 7.463 7.463 0 00-.793-.261 6.563 6.563 0 00-.284-.074 7.892 7.892 0 00-.566-.103c-.083-.012-.165-.028-.25-.037a7.354 7.354 0 00-.83-.05c-4.092 0-7.42 3.328-7.42 7.419 0 .106.007.21.014.314C3.23 15.362.875 19.278.875 23.198c0 5.838 4.75 10.589 10.588 10.589h4.25a.824.824 0 100-1.649h-4.25c-4.929 0-8.94-4.01-8.94-8.94 0-3.425 2.23-6.98 5.304-8.452l.467-.223v-.52c0-.099.007-.2.012-.3l.01-.153-.011-.16c-.005-.07-.011-.14-.011-.211 0-3.181 2.59-5.77 5.77-5.77a5.767 5.767 0 01.948.085c.22.036.437.084.65.145.03.009.06.015.088.023.235.071.464.162.688.264.059.027.116.056.173.084a5.766 5.766 0 013.223 5.17.824.824 0 101.649-.001 7.402 7.402 0 00-2.638-5.664C21.21 4.424 25.1 2.463 28.971 2.463c6.384 0 11.687 5.057 12.24 11.448-.841-.06-2.103-.09-3.365.102a.824.824 0 00.247 1.63c1.836-.278 3.749-.018 3.86-.002 3.839.73 6.732 4.265 6.732 8.23 0 4.558-3.708 8.267-8.266 8.267h-3.274a.823.823 0 100 1.649h3.274c5.467 0 9.915-4.448 9.915-9.915 0-4.525-3.155-8.583-7.439-9.709z" fill="#F9922B"/><path d="M32.44 34.852l-5.187 5.188V23.07a.824.824 0 10-1.648 0v16.97l-5.188-5.188a.823.823 0 10-1.166 1.166l6.594 6.593a.82.82 0 00.584.243.82.82 0 00.584-.242l6.593-6.594a.823.823 0 10-1.166-1.166z" fill="#F9922B"/></symbol><symbol viewBox="0 0 53 53" fill="none" id="date" xmlns="http://www.w3.org/2000/svg"><g clip-path="url(#ba)" fill="#F9922B"><path d="M47.856 4.522h-4.898v-1.44A3.087 3.087 0 0039.873 0a3.086 3.086 0 00-3.082 3.083v1.439H19.527v-1.44A3.087 3.087 0 0016.444 0a3.086 3.086 0 00-3.083 3.083V4.56a1.025 1.025 0 00-.274-.038H8.993A5.144 5.144 0 003.854 9.66v17.504a1.028 1.028 0 002.056 0V15.106h37.047a1.028 1.028 0 000-2.055H5.91V9.66c0-1.7 1.383-3.083 3.083-3.083h4.094c.095 0 .187-.014.274-.038v1.323c0 1.7 1.383 3.082 3.083 3.082 1.7 0 3.083-1.383 3.083-3.083V6.578h17.265v1.285c0 1.7 1.383 3.082 3.082 3.082 1.7 0 3.084-1.383 3.084-3.083V6.578h4.898c1.7 0 3.083 1.383 3.083 3.083v39.05c0 1.02-.83 1.85-1.85 1.85s-1.85-.83-1.85-1.85V46.05c0-.567-.461-1.027-1.028-1.027H34.257a1.028 1.028 0 100 2.055h10.926v1.63c0 .67.17 1.3.467 1.851H4.284c-1.02 0-1.85-.83-1.85-1.85v-1.63h23.001a1.028 1.028 0 000-2.056H15.167a8.408 8.408 0 002.936-6.385c0-4.646-3.78-8.426-8.426-8.426-4.647 0-8.427 3.78-8.427 8.426a8.41 8.41 0 002.936 6.385h-2.78c-.567 0-1.027.46-1.027 1.027v2.66a3.91 3.91 0 003.905 3.904h44.805a3.91 3.91 0 003.905-3.905V9.66a5.144 5.144 0 00-5.138-5.138zm-30.384 3.34a1.029 1.029 0 01-2.056 0v-4.78a1.029 1.029 0 012.056 0v4.78zm23.43 0a1.029 1.029 0 01-2.055 0v-4.78a1.029 1.029 0 012.055 0v4.78zM3.305 38.639a6.379 6.379 0 016.372-6.37 6.379 6.379 0 016.371 6.37 6.379 6.379 0 01-6.371 6.372 6.379 6.379 0 01-6.372-6.372z"/><path d="M48.504 13.352a1.035 1.035 0 00-.726-.301c-.27 0-.535.11-.727.301a1.036 1.036 0 00-.3.727c0 .27.11.535.3.726.192.191.456.301.727.301.27 0 .535-.11.726-.3.192-.192.302-.457.302-.727 0-.27-.11-.536-.302-.727zM31.07 45.324a1.034 1.034 0 00-.727-.3c-.27 0-.536.11-.727.3a1.037 1.037 0 00-.3.727c0 .271.109.535.3.727a1.034 1.034 0 001.453 0 1.04 1.04 0 00.301-.727c0-.27-.11-.535-.3-.727zM23.629 31.24a3.91 3.91 0 00-3.905 3.905 3.91 3.91 0 003.905 3.906 3.91 3.91 0 003.905-3.906 3.91 3.91 0 00-3.905-3.905zm0 5.755c-1.02 0-1.85-.83-1.85-1.85s.83-1.85 1.85-1.85 1.85.83 1.85 1.85-.83 1.85-1.85 1.85zm9.591-5.755a3.91 3.91 0 00-3.905 3.905 3.91 3.91 0 003.905 3.906 3.91 3.91 0 003.905-3.906 3.91 3.91 0 00-3.905-3.905zm0 5.755c-1.02 0-1.85-.83-1.85-1.85s.83-1.85 1.85-1.85 1.85.83 1.85 1.85-.83 1.85-1.85 1.85zm9.592-5.755a3.91 3.91 0 00-3.905 3.905 3.91 3.91 0 003.905 3.906 3.91 3.91 0 003.905-3.906 3.91 3.91 0 00-3.905-3.905zm0 5.755c-1.02 0-1.85-.83-1.85-1.85s.83-1.85 1.85-1.85 1.85.83 1.85 1.85-.83 1.85-1.85 1.85zM14.037 20.553a3.91 3.91 0 00-3.905 3.905 3.91 3.91 0 003.905 3.905 3.91 3.91 0 003.905-3.905 3.91 3.91 0 00-3.905-3.905zm0 5.755c-1.02 0-1.85-.83-1.85-1.85s.83-1.85 1.85-1.85 1.85.83 1.85 1.85-.83 1.85-1.85 1.85zm19.183-5.755a3.91 3.91 0 00-3.905 3.905 3.91 3.91 0 003.905 3.905 3.91 3.91 0 003.905-3.905 3.91 3.91 0 00-3.905-3.905zm0 5.755c-1.02 0-1.85-.83-1.85-1.85s.83-1.85 1.85-1.85 1.85.83 1.85 1.85-.83 1.85-1.85 1.85zm9.592-5.755a3.91 3.91 0 00-3.905 3.905 3.91 3.91 0 003.905 3.905 3.91 3.91 0 003.905-3.905 3.91 3.91 0 00-3.905-3.905zm0 5.755c-1.02 0-1.85-.83-1.85-1.85s.83-1.85 1.85-1.85 1.85.83 1.85 1.85-.83 1.85-1.85 1.85zm-19.183-5.755a3.91 3.91 0 00-3.905 3.905 3.91 3.91 0 003.905 3.905 3.91 3.91 0 003.905-3.905 3.91 3.91 0 00-3.905-3.905zm0 5.755c-1.02 0-1.85-.83-1.85-1.85s.83-1.85 1.85-1.85 1.85.83 1.85 1.85-.83 1.85-1.85 1.85zm-10.291 9.827a1.028 1.028 0 00-1.454 0l-3.346 3.347-1.144-1.144a1.028 1.028 0 00-1.453 1.453l1.87 1.87a1.028 1.028 0 001.453 0l4.074-4.073a1.028 1.028 0 000-1.453z"/></g><defs><clipPath id="ba"><path fill="#fff" d="M.379 0h52.615v52.615H.379z"/></clipPath></defs></symbol><symbol viewBox="0 0 50 50" fill="none" id="earth" xmlns="http://www.w3.org/2000/svg"><path d="M25.09.109A24.724 24.724 0 002.358 15.102l-.308.102.119.358c-5.128 12.647.968 27.057 13.615 32.184a24.711 24.711 0 009.298 1.811c13.655.002 24.726-11.066 24.728-24.72C49.812 11.182 38.745.11 25.09.109zm19.393 37.19l-1.27-1.27v-2.955a.824.824 0 00-.082-.368l-3.214-6.42v-3.101a.824.824 0 00-.367-.686l-2.472-1.648a.824.824 0 00-.66-.114l-3.027.757-5.086-2.183-.7-4.902 1.94-1.938h4.162l1.401 2.106a.826.826 0 00.55.355l4.945.824a.818.818 0 00.396-.031l4.554-1.518a22.993 22.993 0 01-1.07 23.091zm-3.399-29.07l-1.34.894-3.736-.747-2.424-.807a.81.81 0 00-.46-.018l-3.064.765-1.343-.447.995-1.991H32.5c.128 0 .254-.03.368-.087l2.852-1.425a23.161 23.161 0 015.364 3.864zM16.056 3.598l1.978 1.32a.823.823 0 00.322.126l3.994.666-.39 1.166-2.081.695a.824.824 0 00-.446.357l-2.367 3.944-3.802 2.281-5.604.8a.824.824 0 00-.708.816v2.472c0 .219.086.428.241.583L8.6 20.229v1.416L5.17 19.36l-1.243-3.73A23.209 23.209 0 0116.056 3.596zm-2.347 27.021l-3.725-.745L8.6 27.11v-1.937l3.07-3.07 1.137 2.273c.14.28.425.456.738.456h5.302l2.233 3.721c.149.248.417.4.706.4h2.291l-.577 2.89-3.12 3.12a.824.824 0 00-.242.583v2.06l-2.967 2.225a.824.824 0 00-.33.66v2.976l-1.025-.34-1.447-3.619v-8.083a.824.824 0 00-.66-.807zm-2.477 12.67a23.07 23.07 0 01-8.219-25.193l.685 2.054a.824.824 0 00.324.425l4.108 2.738-.937.938a.824.824 0 00-.241.583v2.472a.83.83 0 00.086.369l1.648 3.296c.114.228.327.39.577.44l3.462.691v7.566c0 .105.02.209.058.306l1.648 4.121c.09.225.275.399.506.475l2.472.825a.824.824 0 001.08-.781v-3.71l2.967-2.224c.208-.156.33-.4.33-.66v-2.131l3.055-3.055a.825.825 0 00.225-.421l.824-4.12a.824.824 0 00-.808-.987h-2.83l-2.232-3.72a.824.824 0 00-.706-.4h-5.26l-1.416-2.841a.824.824 0 00-1.32-.214l-1.07 1.065v-1.307a.824.824 0 00-.241-.583L8.6 17.9v-1.417l5.062-.723a.83.83 0 00.307-.11l4.12-2.472a.824.824 0 00.283-.282l2.315-3.859 2.184-.729a.816.816 0 00.52-.52l.825-2.473a.824.824 0 00-.647-1.071l-4.77-.796-.838-.558a23.012 23.012 0 0115.85.589l-1.506.752h-3.102a.824.824 0 00-.741.455l-1.649 3.297a.824.824 0 00.477 1.15l2.473.824c.148.05.308.056.46.018l3.064-.766 2.245.748c.032.011.065.02.099.026l4.12.824c.215.044.438 0 .62-.122l1.875-1.25a23.242 23.242 0 012.479 3.311l-4.055 1.352-4.39-.732-1.45-2.176a.824.824 0 00-.682-.366h-4.945a.824.824 0 00-.582.241l-2.473 2.473a.824.824 0 00-.233.7l.824 5.768a.824.824 0 00.494.64l5.77 2.473c.165.072.35.086.524.042l2.943-.736 1.799 1.202v2.855a.823.823 0 00.082.369l3.214 6.419v3.102c0 .219.087.428.242.583l1.724 1.725c-7.646 10.191-22.107 12.255-32.299 4.609z" fill="#F9922B"/></symbol><symbol viewBox="0 0 16 12" fill="none" id="email" xmlns="http://www.w3.org/2000/svg"><g clip-path="url(#da)"><path d="M14.594.25H1.406C.632.25 0 .845 0 1.576v8.839c0 .728.629 1.326 1.406 1.326h13.188c.772 0 1.406-.593 1.406-1.326V1.576C16 .848 15.371.25 14.594.25zm-.194.884L8.03 7.14 1.605 1.134H14.4zM.937 10.232V1.755l4.515 4.22-4.514 4.257zm.663.625l4.518-4.26 1.583 1.48a.49.49 0 00.662-.001L9.906 6.62l4.494 4.237H1.6zm13.463-.625l-4.494-4.237 4.493-4.236v8.473z" fill="#FF7801"/></g><defs><clipPath id="da"><path fill="#fff" d="M0 0h16v11.991H0z"/></clipPath></defs></symbol><symbol viewBox="0 0 85 80" fill="none" id="footer-logo" xmlns="http://www.w3.org/2000/svg"><g clip-path="url(#ea)"><path d="M14.32 48.968L4.399 39.49 41.973 3.94l38.44 36.49-19.652 18.516v4L84.593 40.43 41.973 0 .198 39.51 14.32 52.927v-3.96zm37.85 18.315l-9.247 8.758-9.246-8.758h-4.18L42.924 80 56.35 67.283h-4.18z" fill="#F9922B"/><path d="M36 27.493H17.274v37.19H36v-37.19zM57.911 7.298H45.71v57.386h12.2V7.298z" fill="#fff"/><path d="M45.71 41.93H28.717v22.754H45.71V41.929z" fill="#F9922B"/></g><defs><clipPath id="ea"><path fill="#fff" d="M.198 0h84.396v80H.198z"/></clipPath></defs></symbol><symbol viewBox="0 0 53 53" fill="none" id="home" xmlns="http://www.w3.org/2000/svg"><g clip-path="url(#fa)" fill="#F9922B"><path d="M52.409 21.381l-24.94-18.26a1.367 1.367 0 00-1.616 0L.913 21.38a1.367 1.367 0 101.615 2.207L26.66 5.918l24.133 17.67a1.365 1.365 0 001.91-.295 1.367 1.367 0 00-.295-1.912z"/><path d="M45.8 23.897c-.755 0-1.367.612-1.367 1.367v21.76H33.497V35.148a6.844 6.844 0 00-6.836-6.836 6.844 6.844 0 00-6.836 6.836v11.878H8.888v-21.76a1.367 1.367 0 00-2.734 0v23.127c0 .755.612 1.367 1.367 1.367h13.671a1.366 1.366 0 001.367-1.367V35.147a4.106 4.106 0 014.102-4.102 4.106 4.106 0 014.102 4.102v13.245a1.366 1.366 0 001.367 1.367H45.8c.755 0 1.367-.612 1.367-1.367V25.264c0-.755-.612-1.367-1.367-1.367z"/></g><defs><clipPath id="fa"><path fill="#fff" d="M.353 0h52.615v52.615H.353z"/></clipPath></defs></symbol><symbol viewBox="0 0 80 80" fill="none" id="logo" xmlns="http://www.w3.org/2000/svg"><path d="M13.387 48.968L3.982 39.49 39.6 3.94l36.438 36.49-18.63 18.516v4L80 40.43 39.6 0 0 39.51l13.387 13.417v-3.96zm35.878 18.315L40.5 76.041l-8.764-8.758h-3.962L40.5 80l12.727-12.717h-3.962z" fill="#F9922B"/><path d="M33.937 27.493H16.188v37.19h17.749v-37.19zm20.77-20.195H43.142v57.386h11.565V7.298z" fill="#333"/><path d="M43.142 41.93h-16.11v22.754H43.14V41.929z" fill="#F9922B"/></symbol><symbol viewBox="0 0 513 277" fill="none" id="main-logo" xmlns="http://www.w3.org/2000/svg"><path d="M46.334 169.551l-32.62-32.816 123.28-123.096 126.259 126.349-24.933 25.132h13.713l25.002-25.132L137.063 0 0 136.804l46.334 46.455v-13.708zm124.112 63.417l-30.335 30.324-30.336-30.324H96.131L140.111 277l44.048-44.032h-13.713z" fill="#F9922B"/><path d="M117.463 95.195H56.03v128.773h61.433V95.195zm71.821-69.925h-40.031v198.698h40.031V25.27z" fill="#333"/><path d="M149.253 145.181H93.5v78.787h55.753v-78.787z" fill="#F9922B"/><path d="M212.763 186.928h-9.211v37.04h9.211v-37.04zm0-13.5h-9.211v9.139h9.211v-9.139zm13.575 15.023h5.125l27.911 24.717 2.84 3.392-.485-4.708v-23.401s5.956-.276 5.956 0v35.586h-4.571l-28.327-25.131-2.77-3.67.554 4.362v24.439h-6.095v-35.586h-.138zm58.108 35.517s-.139-35.863 0-35.724c.138.138 35.46 0 35.46 0v5.192h-28.673v11.146h16.276v5.193h-16.414v14.193h-6.649zm82.487-35.655h-31.374a6.03 6.03 0 00-6.026 6.023v23.609a6.03 6.03 0 006.026 6.023h31.374c3.325 0 6.026-2.7 6.026-6.023v-23.609a6.029 6.029 0 00-6.026-6.023zm-.554 30.532h-30.058v-25.27h30.058v25.27zm65.173-30.186s1.039-14.539-13.229-15.231h-37.607v50.609h38.023s12.051.277 12.813-13.362c0 0 .554-8.792-3.325-11.977 0 0 3.463-2.769 3.325-10.039zm-9.974 20.631a4.817 4.817 0 01-4.848 4.847h-26.041v-10.524h26.041a4.818 4.818 0 014.848 4.847v.83zm0-20.285c0 2.7-2.147 4.847-4.848 4.847h-26.041v-10.524h26.041a4.817 4.817 0 014.848 4.847v.83zm25.28-15.577h-10.181v50.609h10.181v-50.609zm4.986 50.54v-50.54h10.112l20.501 31.709 20.293-31.709H513v50.54h-10.043v-31.847l-20.5 31.847-20.432-31.847v31.847h-10.181z" fill="#333"/></symbol><symbol viewBox="0 0 11 19" fill="none" id="phone" xmlns="http://www.w3.org/2000/svg"><g clip-path="url(#ia)" stroke="#FF7801" stroke-miterlimit="10" stroke-linecap="round" stroke-linejoin="round"><path d="M8.96 18.605H2.04c-.947 0-1.676-.759-1.676-1.746V2.126C.364 1.14 1.093.38 2.04.38h6.92c.947 0 1.676.76 1.676 1.747v14.732c0 .987-.729 1.746-1.676 1.746zM.364 3.493h10.272M4.517 1.898h1.966M.364 15.568h10.272"/><path d="M5.536 17.541a.446.446 0 00.438-.455.446.446 0 00-.438-.455.446.446 0 00-.437.455c0 .252.196.455.437.455z"/></g><defs><clipPath id="ia"><path fill="#fff" d="M0 0h11v18.985H0z"/></clipPath></defs></symbol><symbol viewBox="0 0 32 32" fill="none" id="vk" xmlns="http://www.w3.org/2000/svg"><path d="M15.9 31.443c8.584 0 15.543-6.96 15.543-15.544S24.483.355 15.9.355.355 7.315.355 15.9s6.96 15.544 15.544 15.544z" fill="#333"/><path fill-rule="evenodd" clip-rule="evenodd" d="M25.499 11.082c.138-.445 0-.771-.66-.771h-2.177c-.554 0-.81.282-.948.593 0 0-1.108 2.598-2.677 4.285-.508.489-.738.644-1.015.644-.139 0-.347-.155-.347-.6v-4.152c0-.532-.153-.77-.615-.77h-3.423c-.346 0-.554.247-.554.482 0 .505.785.622.865 2.043v3.086c0 .677-.127.8-.403.8-.739 0-2.535-2.61-3.6-5.596-.21-.58-.419-.815-.975-.815H6.79c-.622 0-.747.282-.747.593 0 .555.739 3.308 3.439 6.95 1.8 2.487 4.336 3.835 6.644 3.835 1.384 0 1.556-.3 1.556-.815v-1.88c0-.599.13-.718.57-.718.322 0 .876.155 2.169 1.354 1.477 1.421 1.72 2.059 2.55 2.059h2.18c.621 0 .933-.3.753-.89-.196-.59-.902-1.444-1.837-2.457-.508-.577-1.27-1.199-1.5-1.51-.323-.4-.231-.577 0-.932 0 0 2.654-3.597 2.93-4.819z" fill="#fff"/></symbol><symbol viewBox="0 0 35 32" fill="none" id="vk-white" xmlns="http://www.w3.org/2000/svg"><g clip-path="url(#ka)"><path d="M17.234 31.443c9.056 0 16.398-6.96 16.398-15.544S26.291.355 17.234.355C8.178.355.836 7.315.836 15.9s7.342 15.544 16.398 15.544z" fill="#fff"/><path fill-rule="evenodd" clip-rule="evenodd" d="M27.361 11.082c.146-.445 0-.771-.695-.771h-2.298c-.584 0-.854.282-1 .593 0 0-1.168 2.598-2.824 4.285-.535.489-.779.644-1.07.644-.147 0-.366-.155-.366-.6v-4.152c0-.532-.162-.77-.649-.77h-3.611c-.365 0-.585.247-.585.482 0 .505.828.622.913 2.043v3.086c0 .677-.134.8-.426.8-.779 0-2.674-2.61-3.798-5.596-.22-.58-.44-.815-1.028-.815H7.626c-.657 0-.788.282-.788.593 0 .555.779 3.308 3.627 6.95 1.9 2.487 4.575 3.835 7.01 3.835 1.46 0 1.64-.3 1.64-.815v-1.88c0-.599.139-.718.602-.718.34 0 .925.155 2.288 1.354 1.558 1.421 1.815 2.059 2.691 2.059h2.298c.657 0 .985-.3.796-.89-.207-.59-.951-1.444-1.938-2.457-.536-.577-1.34-1.199-1.583-1.51-.34-.4-.243-.577 0-.932 0 0 2.8-3.597 3.092-4.819z" fill="#333"/></g><defs><clipPath id="ka"><path fill="#fff" d="M.461 0h33.758v32H.461z"/></clipPath></defs></symbol><symbol viewBox="0 0 32 32" fill="none" id="youtube" xmlns="http://www.w3.org/2000/svg"><path d="M15.9 31.443c8.584 0 15.543-6.96 15.543-15.544S24.483.355 15.9.355.355 7.315.355 15.9s6.96 15.544 15.544 15.544z" fill="#333"/><g clip-path="url(#la)"><path d="M25.606 11.14a2.537 2.537 0 00-1.746-1.777C22.288 8.889 16 8.889 16 8.889s-6.23 0-7.801.415c-.816.237-1.514.948-1.747 1.777-.408 1.6-.408 4.919-.408 4.919s0 3.319.408 4.86c.233.888.931 1.54 1.747 1.777 1.571.474 7.801.474 7.801.474s6.23 0 7.801-.415c.874-.237 1.514-.948 1.747-1.777.408-1.6.408-4.86.408-4.86s.058-3.378-.35-4.918zM14.02 19.023v-6.044L19.203 16l-5.182 3.022z" fill="#fff"/></g><defs><clipPath id="la"><path fill="#fff" d="M6.044 8.889h19.911v14.222H6.044z"/></clipPath></defs></symbol><symbol viewBox="0 0 34 32" fill="none" id="youtube-white" xmlns="http://www.w3.org/2000/svg"><g clip-path="url(#ma)"><path d="M16.872 31.443c9.056 0 16.398-6.96 16.398-15.544S25.928.355 16.872.355C7.815.355.474 7.315.474 15.9s7.341 15.544 16.398 15.544z" fill="#fff"/><g clip-path="url(#mb)"><path d="M27.112 11.14c-.246-.888-.983-1.54-1.843-1.777-1.658-.474-8.291-.474-8.291-.474s-6.572 0-8.23.415c-.86.237-1.597.948-1.843 1.777-.43 1.6-.43 4.919-.43 4.919s0 3.319.43 4.86c.246.888.983 1.54 1.843 1.777 1.658.474 8.23.474 8.23.474s6.572 0 8.23-.415a2.606 2.606 0 001.843-1.777c.43-1.6.43-4.86.43-4.86s.06-3.378-.369-4.918zM14.89 19.023v-6.044L20.356 16l-5.466 3.022z" fill="#333"/></g></g><defs><clipPath id="ma"><path fill="#fff" d="M.099 0h33.758v32H.099z"/></clipPath><clipPath id="mb"><path fill="#fff" d="M6.475 8.889H27.48v14.222H6.475z"/></clipPath></defs></symbol></svg>