<svg width="35" height="32" viewBox="0 0 35 32" fill="none" xmlns="http://www.w3.org/2000/svg">
<g clip-path="url(#clip0)">
<path d="M17.2343 31.4431C26.2905 31.4431 33.6321 24.4838 33.6321 15.8993C33.6321 7.31468 26.2905 0.355469 17.2343 0.355469C8.17801 0.355469 0.836426 7.31468 0.836426 15.8993C0.836426 24.4838 8.17801 31.4431 17.2343 31.4431Z" fill="white"/>
<path fill-rule="evenodd" clip-rule="evenodd" d="M27.361 11.0815C27.507 10.6374 27.361 10.311 26.6661 10.311H24.3681C23.7838 10.311 23.5144 10.5929 23.3683 10.9038C23.3683 10.9038 22.1998 13.5017 20.5443 15.1893C20.0087 15.6778 19.7652 15.8332 19.4731 15.8332C19.327 15.8332 19.1079 15.6778 19.1079 15.2337V11.0815C19.1079 10.5486 18.946 10.311 18.4591 10.311H14.8479C14.4828 10.311 14.2632 10.5584 14.2632 10.7928C14.2632 11.298 15.0909 11.4145 15.1763 12.8356V15.9221C15.1763 16.5988 15.0422 16.7215 14.7501 16.7215C13.9711 16.7215 12.0761 14.1119 10.9522 11.1259C10.7319 10.5455 10.5111 10.311 9.92375 10.311H7.62579C6.96921 10.311 6.83789 10.5929 6.83789 10.9038C6.83789 11.4589 7.61697 14.2123 10.4654 17.8539C12.3643 20.3407 15.0397 21.6888 17.4742 21.6888C18.9349 21.6888 19.1156 21.3894 19.1156 20.8736V18.9941C19.1156 18.3952 19.254 18.2757 19.7166 18.2757C20.0574 18.2757 20.6417 18.4312 22.005 19.6302C23.5631 21.0513 23.82 21.6888 24.6964 21.6888H26.9944C27.6509 21.6888 27.9792 21.3894 27.7898 20.7985C27.5826 20.2096 26.8387 19.3552 25.8516 18.3423C25.316 17.765 24.5126 17.1433 24.2691 16.8324C23.9283 16.4328 24.0257 16.2551 24.2691 15.8998C24.2691 15.8998 27.0689 12.3027 27.361 11.0815Z" fill="#333333"/>
</g>
<defs>
<clipPath id="clip0">
<rect x="0.461426" width="33.7582" height="32" fill="white"/>
</clipPath>
</defs>
</svg>
