<svg width="32" height="32" viewBox="0 0 32 32" fill="none" xmlns="http://www.w3.org/2000/svg">
<path d="M15.8993 31.4431C24.4838 31.4431 31.4431 24.4838 31.4431 15.8993C31.4431 7.31468 24.4838 0.355469 15.8993 0.355469C7.31468 0.355469 0.355469 7.31468 0.355469 15.8993C0.355469 24.4838 7.31468 31.4431 15.8993 31.4431Z" fill="#333333"/>
<g clip-path="url(#clip0)">
<path d="M25.6062 11.1408C25.3733 10.2519 24.6747 9.60003 23.8596 9.36299C22.2877 8.88892 16 8.88892 16 8.88892C16 8.88892 9.77049 8.88892 8.19856 9.30373C7.38348 9.54077 6.68485 10.2519 6.45197 11.0815C6.04443 12.6815 6.04443 16 6.04443 16C6.04443 16 6.04443 19.3185 6.45197 20.8593C6.68485 21.7482 7.38348 22.4 8.19856 22.6371C9.77049 23.1111 16 23.1111 16 23.1111C16 23.1111 22.2295 23.1111 23.8014 22.6963C24.6747 22.4593 25.3151 21.7482 25.548 20.9185C25.9555 19.3185 25.9555 16.0593 25.9555 16.0593C25.9555 16.0593 26.0138 12.6815 25.6062 11.1408ZM14.0205 19.0222V12.9778L19.2021 16L14.0205 19.0222Z" fill="white"/>
</g>
<defs>
<clipPath id="clip0">
<rect x="6.04443" y="8.88892" width="19.9111" height="14.2222" fill="white"/>
</clipPath>
</defs>
</svg>
