<svg width="51" height="43" viewBox="0 0 51 43" fill="none" xmlns="http://www.w3.org/2000/svg">
<path d="M42.8953 14.1631C42.46 6.74429 36.3445 0.814209 28.971 0.814209C24.495 0.814209 20.1608 3.00935 17.476 6.59097C17.4142 6.55882 17.3491 6.53657 17.2864 6.50689C17.1232 6.42776 16.9575 6.35274 16.7885 6.28515C16.6946 6.24806 16.6006 6.21426 16.5058 6.18129C16.3385 6.12276 16.1687 6.07083 15.9956 6.02384C15.9008 5.99829 15.8068 5.97191 15.7112 5.95048C15.5257 5.90844 15.3361 5.87629 15.1449 5.84744C15.0616 5.83508 14.98 5.81859 14.8959 5.80953C14.6223 5.77903 14.3453 5.76007 14.0642 5.76007C9.97315 5.76007 6.64541 9.0878 6.64541 13.1789C6.64541 13.2852 6.65201 13.3891 6.65943 13.4929C3.2303 15.3616 0.875244 19.2779 0.875244 23.1975C0.875244 29.0361 5.62492 33.7866 11.4635 33.7866H15.7128C16.1687 33.7866 16.5371 33.4181 16.5371 32.9623C16.5371 32.5064 16.1687 32.138 15.7128 32.138H11.4635C6.53413 32.138 2.52386 28.1277 2.52386 23.1975C2.52386 19.7733 4.75362 16.2189 7.82665 14.7459L8.29403 14.5225V14.0032C8.29403 13.9042 8.30063 13.8037 8.3064 13.7023L8.31546 13.5498L8.30475 13.3899C8.2998 13.3198 8.29403 13.2497 8.29403 13.1789C8.29403 9.99784 10.8832 7.40869 14.0642 7.40869C14.3189 7.40869 14.5703 7.43094 14.8201 7.46391C14.8844 7.47216 14.9487 7.48287 15.0122 7.49359C15.2322 7.52986 15.449 7.57767 15.6625 7.63949C15.6914 7.64773 15.7211 7.65351 15.7499 7.66175C15.9848 7.73346 16.214 7.82414 16.4382 7.92635C16.4967 7.95273 16.5536 7.98158 16.6113 8.00961C16.8091 8.1077 17.0029 8.21486 17.19 8.33603C18.7784 9.36477 19.8344 11.1494 19.8344 13.1789C19.8344 13.6347 20.2028 14.0032 20.6587 14.0032C21.1145 14.0032 21.483 13.6347 21.483 13.1789C21.483 10.9087 20.4559 8.87678 18.8452 7.51502C21.2085 4.42386 25.1001 2.46283 28.971 2.46283C35.3553 2.46283 40.6581 7.51997 41.2112 13.9108C40.3696 13.8515 39.1075 13.821 37.8455 14.0131C37.3955 14.0815 37.0863 14.5019 37.1548 14.9519C37.2166 15.36 37.5677 15.6526 37.9684 15.6526C38.0096 15.6526 38.0516 15.6493 38.0928 15.6427C39.9286 15.3649 41.8418 15.6254 41.9539 15.6411C45.7919 16.3706 48.6852 19.906 48.6852 23.8718C48.6852 28.4294 44.9766 32.138 40.419 32.138H37.1449C36.689 32.138 36.3206 32.5064 36.3206 32.9623C36.3206 33.4181 36.689 33.7866 37.1449 33.7866H40.419C45.8858 33.7866 50.3338 29.3386 50.3338 23.8718C50.3338 19.3472 47.1792 15.2891 42.8953 14.1631Z" fill="#F9922B"/>
<path d="M32.4404 34.8523L27.2531 40.0396V23.0704C27.2531 22.6146 26.8846 22.2461 26.4288 22.2461C25.9729 22.2461 25.6045 22.6146 25.6045 23.0704V40.0396L20.4171 34.8523C20.0948 34.53 19.5738 34.53 19.2515 34.8523C18.9292 35.1746 18.9292 35.6955 19.2515 36.0178L25.8451 42.6115C25.921 42.6881 26.0125 42.7483 26.1139 42.7904C26.2144 42.8324 26.3216 42.8538 26.4288 42.8538C26.5359 42.8538 26.6431 42.8324 26.7436 42.7904C26.845 42.7483 26.9365 42.6881 27.0124 42.6115L33.606 36.0178C33.9283 35.6955 33.9283 35.1746 33.606 34.8523C33.2837 34.53 32.7628 34.53 32.4404 34.8523Z" fill="#F9922B"/>
</svg>
