<svg width="53" height="53" viewBox="0 0 53 53" fill="none" xmlns="http://www.w3.org/2000/svg">
<g clip-path="url(#clip0)">
<path d="M47.8559 4.52165H42.9575V3.08294C42.9575 1.38301 41.5745 0 39.8745 0C38.1746 0 36.7916 1.38301 36.7916 3.08294V4.52165H19.5271V3.08294C19.5271 1.38301 18.1441 0 16.4442 0C14.7442 0 13.3612 1.38301 13.3612 3.08294V4.55967C13.2739 4.53552 13.1823 4.52165 13.0873 4.52165H8.99271C6.15948 4.52165 3.85447 6.82666 3.85447 9.65988V27.1641C3.85447 27.7317 4.31465 28.1917 4.88212 28.1917C5.44958 28.1917 5.90977 27.7317 5.90977 27.1641V15.1064H42.9575C43.5249 15.1064 43.9851 14.6463 43.9851 14.0788C43.9851 13.5112 43.5249 13.0511 42.9575 13.0511H5.90977V9.65988C5.90977 7.95995 7.29277 6.57694 8.99271 6.57694H13.0873C13.1823 6.57694 13.2739 6.56296 13.3612 6.53892V7.8615C13.3612 9.56143 14.7442 10.9444 16.4442 10.9444C18.1441 10.9444 19.5271 9.56143 19.5271 7.8615V6.57694H36.7916V7.8615C36.7916 9.56143 38.1746 10.9444 39.8745 10.9444C41.5745 10.9444 42.9575 9.56143 42.9575 7.8615V6.57694H47.8559C49.5559 6.57694 50.9389 7.95995 50.9389 9.65988V48.7098C50.9389 49.7301 50.1088 50.5602 49.0885 50.5602C48.0681 50.5602 47.2381 49.7301 47.2381 48.7098V46.0514C47.2381 45.4838 46.7779 45.0238 46.2105 45.0238H34.2568C33.6893 45.0238 33.2291 45.4838 33.2291 46.0514C33.2291 46.619 33.6893 47.0791 34.2568 47.0791H45.1828V48.7098C45.1828 49.3789 45.3522 50.0091 45.6499 50.5602H4.28372C3.26378 50.5602 2.43396 49.7304 2.43396 48.7105V47.0791H25.4353C26.0027 47.0791 26.4629 46.619 26.4629 46.0514C26.4629 45.4838 26.0027 45.0238 25.4353 45.0238H15.1674C16.9631 43.4773 18.1034 41.1897 18.1034 38.6395C18.1034 33.993 14.3232 30.2128 9.67671 30.2128C5.0302 30.2128 1.25 33.993 1.25 38.6395C1.25 41.1897 2.39028 43.4773 4.18599 45.0238H1.40631C0.838842 45.0238 0.378662 45.4838 0.378662 46.0514V48.7105C0.378662 50.8637 2.13049 52.6155 4.28372 52.6155H49.0885C51.242 52.6155 52.9942 50.8635 52.9942 48.7098V9.65988C52.9942 6.82666 50.6892 4.52165 47.8559 4.52165ZM17.4718 7.8615C17.4718 8.42814 17.0108 8.88914 16.4442 8.88914C15.8775 8.88914 15.4165 8.42814 15.4165 7.8615V3.08294C15.4165 2.5163 15.8775 2.05529 16.4442 2.05529C17.0108 2.05529 17.4718 2.5163 17.4718 3.08294V7.8615ZM40.9022 7.8615C40.9022 8.42814 40.4412 8.88914 39.8745 8.88914C39.3079 8.88914 38.8469 8.42814 38.8469 7.8615V3.08294C38.8469 2.5163 39.3079 2.05529 39.8745 2.05529C40.4412 2.05529 40.9022 2.5163 40.9022 3.08294V7.8615ZM3.3053 38.6395C3.3053 35.1263 6.16349 32.2681 9.67671 32.2681C13.1899 32.2681 16.0481 35.1263 16.0481 38.6395C16.0481 42.1527 13.1899 45.0109 9.67671 45.0109C6.16349 45.0109 3.3053 42.1527 3.3053 38.6395Z" fill="#F9922B"/>
<path d="M48.5043 13.3521C48.3133 13.161 48.0482 13.051 47.7779 13.051C47.5075 13.051 47.2425 13.161 47.0513 13.3521C46.8602 13.5433 46.7502 13.8084 46.7502 14.0787C46.7502 14.3489 46.8601 14.6141 47.0513 14.8052C47.2426 14.9964 47.5075 15.1063 47.7779 15.1063C48.0482 15.1063 48.3133 14.9964 48.5043 14.8052C48.6955 14.6141 48.8055 14.3489 48.8055 14.0787C48.8055 13.8084 48.6956 13.5433 48.5043 13.3521Z" fill="#F9922B"/>
<path d="M31.0692 45.3242C30.8781 45.1331 30.613 45.0242 30.3427 45.0242C30.0724 45.0242 29.8073 45.1331 29.6162 45.3242C29.425 45.5164 29.3151 45.7805 29.3151 46.0508C29.3151 46.3221 29.4249 46.5862 29.6162 46.7784C29.8073 46.9695 30.0724 47.0784 30.3427 47.0784C30.613 47.0784 30.8781 46.9695 31.0692 46.7784C31.2603 46.5862 31.3704 46.3211 31.3704 46.0508C31.3704 45.7805 31.2604 45.5164 31.0692 45.3242Z" fill="#F9922B"/>
<path d="M23.6287 31.2405C21.4755 31.2405 19.7236 32.9923 19.7236 35.1455C19.7236 37.2988 21.4755 39.0506 23.6287 39.0506C25.7819 39.0506 27.5337 37.2988 27.5337 35.1455C27.5337 32.9923 25.7819 31.2405 23.6287 31.2405ZM23.6287 36.9953C22.6088 36.9953 21.7789 36.1655 21.7789 35.1455C21.7789 34.1256 22.6088 33.2958 23.6287 33.2958C24.6486 33.2958 25.4785 34.1256 25.4785 35.1455C25.4785 36.1655 24.6486 36.9953 23.6287 36.9953Z" fill="#F9922B"/>
<path d="M33.2201 31.2405C31.0669 31.2405 29.3151 32.9923 29.3151 35.1455C29.3151 37.2988 31.0669 39.0506 33.2201 39.0506C35.3734 39.0506 37.1252 37.2988 37.1252 35.1455C37.1252 32.9923 35.3734 31.2405 33.2201 31.2405ZM33.2201 36.9953C32.2002 36.9953 31.3704 36.1655 31.3704 35.1455C31.3704 34.1256 32.2002 33.2958 33.2201 33.2958C34.2401 33.2958 35.0699 34.1256 35.0699 35.1455C35.0699 36.1655 34.2401 36.9953 33.2201 36.9953Z" fill="#F9922B"/>
<path d="M42.8115 31.2405C40.6583 31.2405 38.9065 32.9923 38.9065 35.1455C38.9065 37.2988 40.6583 39.0506 42.8115 39.0506C44.9648 39.0506 46.7166 37.2988 46.7166 35.1455C46.7166 32.9923 44.9648 31.2405 42.8115 31.2405ZM42.8115 36.9953C41.7916 36.9953 40.9618 36.1655 40.9618 35.1455C40.9618 34.1256 41.7916 33.2958 42.8115 33.2958C43.8315 33.2958 44.6613 34.1256 44.6613 35.1455C44.6613 36.1655 43.8315 36.9953 42.8115 36.9953Z" fill="#F9922B"/>
<path d="M14.0373 20.553C11.884 20.553 10.1322 22.3048 10.1322 24.458C10.1322 26.6113 11.884 28.3631 14.0373 28.3631C16.1905 28.3631 17.9423 26.6113 17.9423 24.458C17.9423 22.3048 16.1905 20.553 14.0373 20.553ZM14.0373 26.3078C13.0173 26.3078 12.1875 25.478 12.1875 24.458C12.1875 23.4381 13.0173 22.6083 14.0373 22.6083C15.0572 22.6083 15.887 23.4381 15.887 24.458C15.887 25.478 15.0572 26.3078 14.0373 26.3078Z" fill="#F9922B"/>
<path d="M33.2201 20.553C31.0669 20.553 29.3151 22.3048 29.3151 24.458C29.3151 26.6113 31.0669 28.3631 33.2201 28.3631C35.3734 28.3631 37.1252 26.6113 37.1252 24.458C37.1252 22.3048 35.3734 20.553 33.2201 20.553ZM33.2201 26.3078C32.2002 26.3078 31.3704 25.478 31.3704 24.458C31.3704 23.4381 32.2002 22.6083 33.2201 22.6083C34.2401 22.6083 35.0699 23.4381 35.0699 24.458C35.0699 25.478 34.2401 26.3078 33.2201 26.3078Z" fill="#F9922B"/>
<path d="M42.8115 20.553C40.6583 20.553 38.9065 22.3048 38.9065 24.458C38.9065 26.6113 40.6583 28.3631 42.8115 28.3631C44.9648 28.3631 46.7166 26.6113 46.7166 24.458C46.7166 22.3048 44.9648 20.553 42.8115 20.553ZM42.8115 26.3078C41.7916 26.3078 40.9618 25.478 40.9618 24.458C40.9618 23.4381 41.7916 22.6083 42.8115 22.6083C43.8315 22.6083 44.6613 23.4381 44.6613 24.458C44.6613 25.478 43.8315 26.3078 42.8115 26.3078Z" fill="#F9922B"/>
<path d="M23.6287 20.553C21.4755 20.553 19.7236 22.3048 19.7236 24.458C19.7236 26.6113 21.4755 28.3631 23.6287 28.3631C25.7819 28.3631 27.5337 26.6113 27.5337 24.458C27.5337 22.3048 25.7819 20.553 23.6287 20.553ZM23.6287 26.3078C22.6088 26.3078 21.7789 25.478 21.7789 24.458C21.7789 23.4381 22.6088 22.6083 23.6287 22.6083C24.6486 22.6083 25.4785 23.4381 25.4785 24.458C25.4785 25.478 24.6486 26.3078 23.6287 26.3078Z" fill="#F9922B"/>
<path d="M13.3377 36.135C12.9363 35.7337 12.2858 35.7337 11.8843 36.135L8.53769 39.4817L7.39402 38.338C6.99262 37.9367 6.34212 37.9367 5.94062 38.338C5.53932 38.7393 5.53932 39.39 5.94062 39.7914L7.81104 41.6616C8.00383 41.8543 8.26516 41.9626 8.53769 41.9626C8.81022 41.9626 9.07155 41.8543 9.26434 41.6616L13.3377 37.5883C13.739 37.187 13.739 36.5363 13.3377 36.135Z" fill="#F9922B"/>
</g>
<defs>
<clipPath id="clip0">
<rect x="0.378662" width="52.6155" height="52.6155" fill="white"/>
</clipPath>
</defs>
</svg>
