<svg width="32" height="32" viewBox="0 0 32 32" fill="none" xmlns="http://www.w3.org/2000/svg">
<path d="M15.8993 31.4431C24.4838 31.4431 31.4431 24.4838 31.4431 15.8993C31.4431 7.31468 24.4838 0.355469 15.8993 0.355469C7.31468 0.355469 0.355469 7.31468 0.355469 15.8993C0.355469 24.4838 7.31468 31.4431 15.8993 31.4431Z" fill="#333333"/>
<path fill-rule="evenodd" clip-rule="evenodd" d="M25.4987 11.0815C25.637 10.6374 25.4987 10.311 24.8399 10.311H22.6616C22.1078 10.311 21.8524 10.5929 21.7139 10.9038C21.7139 10.9038 20.6062 13.5017 19.037 15.1893C18.5293 15.6778 18.2985 15.8332 18.0215 15.8332C17.8831 15.8332 17.6754 15.6778 17.6754 15.2337V11.0815C17.6754 10.5486 17.5219 10.311 17.0603 10.311H13.6373C13.2912 10.311 13.0831 10.5584 13.0831 10.7928C13.0831 11.298 13.8676 11.4145 13.9485 12.8356V15.9221C13.9485 16.5988 13.8215 16.7215 13.5446 16.7215C12.8061 16.7215 11.0098 14.1119 9.94446 11.1259C9.73567 10.5455 9.52629 10.311 8.96958 10.311H6.7913C6.16892 10.311 6.04443 10.5929 6.04443 10.9038C6.04443 11.4589 6.78294 14.2123 9.48296 17.8539C11.283 20.3407 13.819 21.6888 16.1268 21.6888C17.5114 21.6888 17.6827 21.3894 17.6827 20.8736V18.9941C17.6827 18.3952 17.8139 18.2757 18.2523 18.2757C18.5754 18.2757 19.1293 18.4312 20.4216 19.6302C21.8986 21.0513 22.142 21.6888 22.9728 21.6888H25.1511C25.7735 21.6888 26.0846 21.3894 25.9051 20.7985C25.7087 20.2096 25.0035 19.3552 24.0679 18.3423C23.5601 17.765 22.7986 17.1433 22.5678 16.8324C22.2447 16.4328 22.337 16.2551 22.5678 15.8998C22.5678 15.8998 25.2217 12.3027 25.4987 11.0815Z" fill="white"/>
</svg>
