<svg width="34" height="32" viewBox="0 0 34 32" fill="none" xmlns="http://www.w3.org/2000/svg">
<g clip-path="url(#clip0)">
<path d="M16.8717 31.4431C25.928 31.4431 33.2696 24.4838 33.2696 15.8993C33.2696 7.31468 25.928 0.355469 16.8717 0.355469C7.81546 0.355469 0.473877 7.31468 0.473877 15.8993C0.473877 24.4838 7.81546 31.4431 16.8717 31.4431Z" fill="white"/>
<g clip-path="url(#clip1)">
<path d="M27.112 11.1408C26.8663 10.2519 26.1293 9.60003 25.2694 9.36299C23.6111 8.88892 16.9779 8.88892 16.9779 8.88892C16.9779 8.88892 10.4061 8.88892 8.74783 9.30373C7.88797 9.54077 7.15095 10.2519 6.90527 11.0815C6.47534 12.6815 6.47534 16 6.47534 16C6.47534 16 6.47534 19.3185 6.90527 20.8593C7.15095 21.7482 7.88797 22.4 8.74783 22.6371C10.4061 23.1111 16.9779 23.1111 16.9779 23.1111C16.9779 23.1111 23.5497 23.1111 25.208 22.6963C26.1293 22.4593 26.8049 21.7482 27.0505 20.9185C27.4805 19.3185 27.4805 16.0593 27.4805 16.0593C27.4805 16.0593 27.5419 12.6815 27.112 11.1408ZM14.8897 19.0222V12.9778L20.3559 16L14.8897 19.0222Z" fill="#333333"/>
</g>
</g>
<defs>
<clipPath id="clip0">
<rect x="0.098877" width="33.7582" height="32" fill="white"/>
</clipPath>
<clipPath id="clip1">
<rect x="6.47534" y="8.88892" width="21.0051" height="14.2222" fill="white"/>
</clipPath>
</defs>
</svg>
